<svg xmlns="http://www.w3.org/2000/svg" viewBox="0 0 18 18"><title>Technovation</title><rect data-element="frame" x="0" y="0" width="18" height="18" rx="18" ry="18" stroke="none" fill="#ffc900"></rect><g transform="translate(3.6 3.6) scale(0.6)" fill="#000000" stroke="#000000" class="nc-icon-wrapper"><circle cx="7.25" cy="6.25" r="1.5" fill="none" stroke-linecap="round" stroke-linejoin="round" stroke-width="1.5" data-color="color-2"></circle><path d="M16.25,6.5v5.381c0,.265-.105,.52-.293,.707l-3.369,3.369c-.188,.188-.442,.293-.707,.293H5.75" fill="none" stroke="#000000" stroke-linecap="round" stroke-linejoin="round" stroke-width="1.5"></path><path d="M6.75,10.25v2.336c0,.265,.105,.52,.293,.707l.707,.707" fill="none" stroke="#000000" stroke-linecap="round" stroke-linejoin="round" stroke-width="1.5"></path><path d="M3.25,14.25l.792-1.025c.135-.175,.208-.39,.208-.611v-3.177c0-.279,.116-.545,.321-.734l1.566-1.45" fill="none" stroke-linecap="round" stroke-linejoin="round" stroke-width="1.5" data-color="color-2"></path><circle cx="10.75" cy="11.75" r="1.5" fill="none" stroke-linecap="round" stroke-linejoin="round" stroke-width="1.5" data-color="color-2"></circle><path d="M11.25,7.75v-2.336c0-.265-.105-.52-.293-.707l-.707-.707" fill="none" stroke="#000000" stroke-linecap="round" stroke-linejoin="round" stroke-width="1.5"></path><path d="M14.75,3.75l-.792,1.025c-.135,.175-.208,.39-.208,.611v3.177c0,.279-.116,.545-.321,.734l-1.566,1.45" fill="none" stroke-linecap="round" stroke-linejoin="round" stroke-width="1.5" data-color="color-2"></path><path d="M12.25,1.75H6.119c-.265,0-.52,.105-.707,.293l-3.369,3.369c-.188,.188-.293,.442-.293,.707v5.381" fill="none" stroke="#000000" stroke-linecap="round" stroke-linejoin="round" stroke-width="1.5"></path></g></svg>